<svg xmlns="http://www.w3.org/2000/svg" xmlns:xlink="http://www.w3.org/1999/xlink" id="Layer_1" x="0px" y="0px" viewBox="0 0 294.1 189.1" style="enable-background:new 0 0 294.1 189.1;" xml:space="preserve"><style type="text/css">	.st0{enable-background:new    ;}	.st1{fill:#FFFFFF;}	.st2{fill:#95C93F;}	.st3{fill:#96C940;}	.st4{fill:#DBF1FA;}</style><g class="st0">	<path class="st1" d="M57.9,102.7H28.1V33.6h29.8c4.3,0.1,7.8,0.6,10.7,1.5c4.8,1.6,8.8,4.5,11.8,8.8c2.4,3.4,4,7.2,4.9,11.2  c0.9,4,1.3,7.8,1.3,11.4c0,9.2-1.8,17-5.5,23.3C76,98.4,68.3,102.7,57.9,102.7z M68.6,51.3c-2.2-3.8-6.6-5.6-13.2-5.6H42.1v45.1  h13.3c6.8,0,11.6-3.4,14.2-10.1c1.5-3.7,2.2-8.1,2.2-13.2C71.9,60.5,70.8,55.1,68.6,51.3z"></path></g><g class="st0">	<path class="st1" d="M146.7,33.6v12.2h-20.7v56.9h-14.5V45.9H90.8V33.6H146.7z"></path></g><g class="st0">	<path class="st1" d="M196.1,102.7V71.9h-27v30.8h-14.3V33.6h14.3V60h27V33.6h14.3v69.1H196.1z"></path></g><g class="st0">	<path class="st2" d="M84.9,118.2v2.4h-6.8v17.7h-2.7v-17.7h-6.8v-2.4H84.9z"></path></g><g class="st0">	<path class="st2" d="M86.7,118.2h9.1c1.5,0,2.7,0.2,3.7,0.7c1.9,0.9,2.8,2.4,2.8,4.7c0,1.2-0.2,2.2-0.7,3c-0.5,0.8-1.2,1.4-2.1,1.8  c0.8,0.3,1.4,0.7,1.8,1.3s0.6,1.4,0.7,2.5l0.1,2.7c0,0.8,0.1,1.3,0.2,1.7c0.2,0.6,0.5,1,0.9,1.2v0.5h-3.3c-0.1-0.2-0.2-0.4-0.2-0.7  s-0.1-0.8-0.1-1.6l-0.2-3.3c-0.1-1.3-0.5-2.2-1.4-2.6c-0.5-0.2-1.3-0.4-2.4-0.4h-6v8.6h-2.7V118.2z M95.5,127.4  c1.2,0,2.2-0.3,2.9-0.8c0.7-0.5,1.1-1.4,1.1-2.8c0-1.4-0.5-2.4-1.5-2.9c-0.5-0.3-1.3-0.4-2.2-0.4h-6.5v6.9H95.5z"></path></g><g class="st0">	<path class="st2" d="M111.9,118.2h3.1l7.3,20.1h-3l-2-6h-7.9l-2.2,6h-2.8L111.9,118.2z M116.4,130.1l-3-8.9l-3.2,8.9H116.4z"></path></g><g class="st0">	<path class="st2" d="M123.5,118.2l5.8,17.1l5.7-17.1h3l-7.3,20.1h-2.9l-7.3-20.1H123.5z"></path></g><g class="st0">	<path class="st2" d="M139.8,118.2h14.6v2.5h-11.9v6.1h11v2.3h-11v6.8h12.1v2.4h-14.8V118.2z"></path></g><g class="st0">	<path class="st2" d="M156.9,118.2h2.7v17.7h10.1v2.4h-12.8V118.2z"></path></g><path class="st3" d="M251.5,65.5c0.8,1.2,1.9,2,3.3,2.4c0.8,0.3,1.8,0.4,3,0.4h8.3V49.2h-8.3c-2.9,0-5.1,1.2-6.4,3.6 c-1,1.8-1.5,3.9-1.5,6.5c0,1,0.1,2.1,0.4,3.2S250.9,64.6,251.5,65.5"></path><path class="st3" d="M242.6,63.3c-2.5,0-4.5-2-4.5-4.5s2-4.5,4.5-4.5s4.5,2,4.5,4.5S245.1,63.3,242.6,63.3"></path><path class="st1" d="M227.8,36c-0.9,1.2-1.3,2.5-1.3,3.9c0,0.8,0.2,1.8,0.5,3l2.6,7.9l18.2-5.9l-2.6-7.9c-0.9-2.8-2.7-4.4-5.4-5 c-2-0.4-4.2-0.2-6.6,0.5c-0.9,0.3-1.9,0.8-2.9,1.3C229.4,34.3,228.5,35.1,227.8,36"></path><path class="st1" d="M227.1,26.8c-0.8-2.4,0.5-4.9,2.9-5.7c2.4-0.8,4.9,0.5,5.7,2.9s-0.5,4.9-2.9,5.7 C230.5,30.5,227.9,29.2,227.1,26.8"></path><path class="st3" d="M248.6,4.4c-1.4-0.5-2.7-0.5-4.1-0.1c-0.8,0.2-1.7,0.7-2.6,1.4l-6.7,4.9l11.2,15.5l6.7-4.9 c2.3-1.7,3.4-3.9,3.1-6.7c-0.2-2-1.1-4.1-2.6-6.1c-0.6-0.8-1.3-1.6-2.1-2.3C250.7,5.3,249.7,4.7,248.6,4.4"></path><path class="st3" d="M257.1,0.9c2-1.5,4.9-1,6.3,1c1.5,2,1,4.8-1,6.3s-4.9,1-6.3-1C254.6,5.2,255.1,2.3,257.1,0.9"></path><path class="st3" d="M285.1,14.3c0-1.4-0.4-2.8-1.2-3.9c-0.5-0.7-1.2-1.4-2.1-2.1L275,3.5L263.8,19l6.7,4.9c2.3,1.7,4.8,2,7.3,0.9 c1.9-0.8,3.5-2.3,5-4.3c0.6-0.8,1.1-1.7,1.6-2.8C284.8,16.6,285.1,15.4,285.1,14.3"></path><path class="st3" d="M291,21.3c2,1.5,2.5,4.3,1,6.3s-4.3,2.5-6.3,1s-2.5-4.3-1-6.3S289,19.9,291,21.3"></path><path class="st3" d="M286.9,52.1c1.4-0.4,2.5-1.2,3.3-2.4c0.5-0.7,0.9-1.6,1.3-2.7l2.5-7.9l-18.2-5.9l-2.5,7.9 c-0.9,2.8-0.4,5.2,1.4,7.2c1.4,1.5,3.3,2.7,5.7,3.5c1,0.3,2,0.5,3.1,0.6C284.7,52.6,285.8,52.5,286.9,52.1"></path><path class="st3" d="M282.1,59.9c-0.8,2.4-3.3,3.7-5.7,2.9s-3.7-3.3-2.9-5.7s3.3-3.7,5.7-2.9C281.5,55,282.8,57.5,282.1,59.9"></path><g class="st0">	<path class="st4" d="M1.6,178.6v-15.7h10.8v2.7H4.8v3.7h6.6v2.7H4.8v6.7L1.6,178.6L1.6,178.6z"></path></g><g class="st0">	<path class="st4" d="M13.8,172.7c0-1,0.2-2,0.7-2.9s1.2-1.7,2.1-2.1c0.9-0.5,1.9-0.7,3-0.7c1.7,0,3.1,0.6,4.2,1.7  c1.1,1.1,1.7,2.5,1.7,4.2s-0.6,3.2-1.7,4.3s-2.5,1.7-4.2,1.7c-1,0-2-0.2-3-0.7c-0.9-0.5-1.7-1.2-2.2-2.1  C14,175.1,13.8,174,13.8,172.7z M16.9,172.9c0,1.1,0.3,2,0.8,2.6s1.2,0.9,2,0.9s1.4-0.3,2-0.9c0.5-0.6,0.8-1.5,0.8-2.6  s-0.3-2-0.8-2.6s-1.2-0.9-2-0.9s-1.5,0.3-2,0.9S16.9,171.7,16.9,172.9z"></path></g><g class="st0">	<path class="st4" d="M30.4,178.6h-3v-11.4h2.8v1.6c0.5-0.8,0.9-1.3,1.3-1.5s0.8-0.4,1.3-0.4c0.7,0,1.3,0.2,2,0.6l-0.9,2.6  c-0.5-0.3-1-0.5-1.4-0.5s-0.8,0.1-1.1,0.3c-0.3,0.2-0.5,0.7-0.7,1.3s-0.3,1.9-0.3,3.8C30.4,175,30.4,178.6,30.4,178.6z"></path></g><g class="st0">	<path class="st4" d="M35.7,167.2h2.8v1.6c1-1.2,2.2-1.8,3.6-1.8c0.7,0,1.4,0.2,1.9,0.5s1,0.8,1.3,1.4c0.5-0.6,1-1.1,1.6-1.4  s1.2-0.5,1.9-0.5c0.8,0,1.5,0.2,2.1,0.5s1,0.8,1.3,1.5c0.2,0.5,0.3,1.3,0.3,2.4v7.3h-3V172c0-1.1-0.1-1.9-0.3-2.2  c-0.3-0.4-0.7-0.6-1.3-0.6c-0.4,0-0.8,0.1-1.2,0.4c-0.4,0.3-0.6,0.6-0.8,1.1s-0.2,1.3-0.2,2.4v5.5h-3v-6.3c0-1.1-0.1-1.8-0.2-2.1  s-0.3-0.6-0.5-0.7s-0.5-0.2-0.9-0.2c-0.5,0-0.9,0.1-1.3,0.4c-0.4,0.3-0.6,0.6-0.8,1.1s-0.2,1.3-0.2,2.4v5.5h-3L35.7,167.2  L35.7,167.2z"></path></g><g class="st0">	<path class="st4" d="M61.8,174.9l3,0.5c-0.4,1.1-1,1.9-1.8,2.5s-1.9,0.9-3.1,0.9c-2,0-3.5-0.6-4.4-1.9c-0.8-1-1.1-2.3-1.1-3.9  c0-1.9,0.5-3.4,1.5-4.4c1-1.1,2.2-1.6,3.7-1.6c1.7,0,3,0.6,4,1.7c1,1.1,1.5,2.8,1.4,5.2h-7.6c0,0.9,0.3,1.6,0.7,2.1  c0.5,0.5,1,0.7,1.7,0.7c0.5,0,0.9-0.1,1.2-0.4S61.7,175.5,61.8,174.9z M62,171.9c0-0.9-0.2-1.5-0.7-2c-0.4-0.5-1-0.7-1.6-0.7  c-0.7,0-1.2,0.2-1.6,0.7s-0.6,1.1-0.6,2H62z"></path></g><g class="st0">	<path class="st4" d="M70.4,178.6h-3v-11.4h2.8v1.6c0.5-0.8,0.9-1.3,1.3-1.5s0.8-0.4,1.3-0.4c0.7,0,1.3,0.2,2,0.6l-0.9,2.6  c-0.5-0.3-1-0.5-1.4-0.5s-0.8,0.1-1.1,0.3c-0.3,0.2-0.5,0.7-0.7,1.3s-0.3,1.9-0.3,3.8C70.4,175,70.4,178.6,70.4,178.6z"></path></g><g class="st0">	<path class="st4" d="M75.9,178.6v-15.7h3v15.7H75.9z"></path></g><g class="st0">	<path class="st4" d="M80.3,167.2h3.2l2.7,8.1l2.7-8.1H92l-4,11l-0.7,2c-0.3,0.7-0.5,1.2-0.8,1.5c-0.2,0.4-0.5,0.6-0.8,0.9  c-0.3,0.2-0.7,0.4-1.1,0.5c-0.5,0.1-1,0.2-1.5,0.2c-0.6,0-1.1-0.1-1.7-0.2l-0.3-2.4c0.5,0.1,0.9,0.1,1.3,0.1c0.7,0,1.2-0.2,1.6-0.6  c0.3-0.4,0.6-0.9,0.8-1.6L80.3,167.2z"></path></g><g class="st0">	<path class="st4" d="M97.8,162.8h5.8c1.3,0,2.3,0.1,3,0.3c0.9,0.3,1.7,0.8,2.4,1.5c0.7,0.7,1.2,1.5,1.5,2.6c0.3,1,0.5,2.2,0.5,3.7  c0,1.3-0.2,2.4-0.5,3.4c-0.4,1.1-1,2.1-1.7,2.8c-0.6,0.5-1.3,1-2.2,1.3c-0.7,0.2-1.6,0.3-2.8,0.3h-6  C97.8,178.7,97.8,162.8,97.8,162.8z M101,165.5v10.4h2.4c0.9,0,1.5,0,1.9-0.2c0.5-0.1,0.9-0.3,1.3-0.7c0.3-0.3,0.6-0.8,0.8-1.5  c0.2-0.7,0.3-1.7,0.3-2.9s-0.1-2.2-0.3-2.8s-0.5-1.2-0.9-1.5s-0.9-0.6-1.5-0.7c-0.4-0.1-1.3-0.2-2.6-0.2L101,165.5L101,165.5z"></path></g><g class="st0">	<path class="st4" d="M113.5,165.6v-2.8h3v2.8H113.5z M113.5,178.6v-11.4h3v11.4H113.5z"></path></g><g class="st0">	<path class="st4" d="M126,174.9l3,0.5c-0.4,1.1-1,1.9-1.8,2.5s-1.9,0.9-3.1,0.9c-2,0-3.5-0.6-4.4-1.9c-0.8-1-1.1-2.3-1.1-3.9  c0-1.9,0.5-3.4,1.5-4.4c1-1.1,2.2-1.6,3.7-1.6c1.7,0,3,0.6,4,1.7c1,1.1,1.5,2.8,1.4,5.2h-7.6c0,0.9,0.3,1.6,0.7,2.1  c0.5,0.5,1,0.7,1.7,0.7c0.5,0,0.9-0.1,1.2-0.4S125.8,175.5,126,174.9z M126.2,171.9c0-0.9-0.2-1.5-0.7-2c-0.4-0.5-1-0.7-1.6-0.7  c-0.7,0-1.2,0.2-1.6,0.7s-0.6,1.1-0.6,2H126.2z"></path></g><g class="st0">	<path class="st4" d="M136.8,167.2v2.4h-2.1v4.6c0,0.9,0,1.5,0.1,1.6c0,0.2,0.1,0.3,0.3,0.4s0.3,0.2,0.5,0.2c0.3,0,0.7-0.1,1.2-0.3  l0.3,2.3c-0.7,0.3-1.5,0.5-2.4,0.5c-0.5,0-1-0.1-1.5-0.3c-0.4-0.2-0.8-0.4-1-0.7s-0.3-0.7-0.4-1.2c-0.1-0.4-0.1-1.1-0.1-2.1v-5  h-1.4v-2.4h1.4v-2.3l3-1.8v4h2.1V167.2z"></path></g><g class="st0">	<path class="st4" d="M142.6,162.8v5.8c1-1.1,2.1-1.7,3.5-1.7c0.7,0,1.3,0.1,1.9,0.4c0.6,0.3,1,0.6,1.3,1s0.5,0.8,0.6,1.3  s0.2,1.2,0.2,2.3v6.7h-3v-6c0-1.2-0.1-2-0.2-2.3c-0.1-0.3-0.3-0.6-0.6-0.8s-0.7-0.3-1.1-0.3c-0.5,0-0.9,0.1-1.3,0.4  c-0.4,0.2-0.7,0.6-0.9,1.1s-0.3,1.2-0.3,2.2v5.7h-3v-15.7L142.6,162.8L142.6,162.8z"></path></g><g class="st0">	<path class="st4" d="M159.2,174.9l3,0.5c-0.4,1.1-1,1.9-1.8,2.5s-1.9,0.9-3.1,0.9c-2,0-3.5-0.6-4.4-1.9c-0.8-1-1.1-2.3-1.1-3.9  c0-1.9,0.5-3.4,1.5-4.4c1-1.1,2.2-1.6,3.8-1.6c1.7,0,3,0.6,4,1.7c1,1.1,1.4,2.8,1.4,5.2h-7.6c0,0.9,0.3,1.6,0.7,2.1  c0.5,0.5,1,0.7,1.7,0.7c0.5,0,0.9-0.1,1.2-0.4S159,175.5,159.2,174.9z M159.3,171.9c0-0.9-0.2-1.5-0.7-2c-0.4-0.5-1-0.7-1.6-0.7  c-0.7,0-1.2,0.2-1.6,0.7s-0.6,1.1-0.6,2H159.3z"></path></g><g class="st0">	<path class="st4" d="M164.8,178.6v-15.7h3v15.7H164.8z"></path></g><g class="st0">	<path class="st4" d="M170.4,167.2h2.8v1.6c1-1.2,2.2-1.8,3.6-1.8c0.7,0,1.4,0.2,1.9,0.5s1,0.8,1.3,1.4c0.5-0.6,1-1.1,1.6-1.4  s1.2-0.5,1.9-0.5c0.8,0,1.5,0.2,2.1,0.5s1,0.8,1.3,1.5c0.2,0.5,0.3,1.3,0.3,2.4v7.3h-3V172c0-1.1-0.1-1.9-0.3-2.2  c-0.3-0.4-0.7-0.6-1.3-0.6c-0.4,0-0.8,0.1-1.2,0.4c-0.4,0.3-0.6,0.6-0.8,1.1s-0.2,1.3-0.2,2.4v5.5h-3v-6.3c0-1.1-0.1-1.8-0.2-2.1  s-0.3-0.6-0.5-0.7s-0.5-0.2-0.9-0.2c-0.5,0-0.9,0.1-1.3,0.4c-0.4,0.3-0.6,0.6-0.8,1.1s-0.2,1.3-0.2,2.4v5.5h-3v-11.5H170.4z"></path></g><g class="st0">	<path class="st4" d="M197.5,178.6v-13.1h-4.7v-2.7h12.5v2.7h-4.7v13.1H197.5z"></path></g><g class="st0">	<path class="st4" d="M208.5,178.6h-3v-11.4h2.8v1.6c0.5-0.8,0.9-1.3,1.3-1.5s0.8-0.4,1.3-0.4c0.7,0,1.3,0.2,2,0.6l-0.9,2.6  c-0.5-0.3-1-0.5-1.4-0.5s-0.8,0.1-1.1,0.3s-0.5,0.7-0.7,1.3s-0.3,1.9-0.3,3.8L208.5,178.6L208.5,178.6z"></path></g><g class="st0">	<path class="st4" d="M216.5,170.6l-2.7-0.5c0.3-1.1,0.8-1.9,1.6-2.4s1.9-0.8,3.4-0.8c1.3,0,2.3,0.2,3,0.5s1.1,0.7,1.4,1.2  c0.3,0.5,0.4,1.4,0.4,2.7v3.5c0,1,0,1.7,0.1,2.2s0.3,1,0.5,1.5h-3c-0.1-0.2-0.2-0.5-0.3-0.9c-0.1-0.2-0.1-0.3-0.1-0.4  c-0.5,0.5-1.1,0.9-1.7,1.1c-0.6,0.3-1.2,0.4-1.9,0.4c-1.2,0-2.1-0.3-2.8-1s-1-1.4-1-2.4c0-0.6,0.2-1.2,0.5-1.7s0.7-0.9,1.3-1.2  s1.4-0.5,2.4-0.7c1.4-0.3,2.4-0.5,2.9-0.7v-0.3c0-0.6-0.1-1-0.4-1.2c-0.3-0.2-0.8-0.4-1.6-0.4c-0.5,0-1,0.1-1.3,0.3  C216.9,169.7,216.7,170.1,216.5,170.6z M220.5,173.1c-0.4,0.1-1,0.3-1.8,0.5s-1.4,0.4-1.6,0.5c-0.4,0.3-0.6,0.6-0.6,1.1  c0,0.4,0.2,0.8,0.5,1.1s0.7,0.5,1.2,0.5s1.1-0.2,1.6-0.5c0.4-0.3,0.6-0.6,0.7-1c0.1-0.3,0.1-0.7,0.1-1.5L220.5,173.1L220.5,173.1z"></path></g><g class="st0">	<path class="st4" d="M228.9,178.6l-4.6-11.4h3.2l2.1,5.8l0.6,1.9c0.2-0.5,0.3-0.8,0.3-1c0.1-0.3,0.2-0.6,0.3-1l2.2-5.8h3.1  l-4.5,11.4h-2.7V178.6z"></path></g><g class="st0">	<path class="st4" d="M243.9,174.9l3,0.5c-0.4,1.1-1,1.9-1.8,2.5s-1.9,0.9-3.1,0.9c-2,0-3.5-0.6-4.4-1.9c-0.8-1-1.1-2.3-1.1-3.9  c0-1.9,0.5-3.4,1.5-4.4c1-1.1,2.2-1.6,3.7-1.6c1.7,0,3,0.6,4,1.7c1,1.1,1.5,2.8,1.4,5.2h-7.6c0,0.9,0.3,1.6,0.7,2.1  c0.5,0.5,1,0.7,1.7,0.7c0.5,0,0.9-0.1,1.2-0.4S243.7,175.5,243.9,174.9z M244.1,171.9c0-0.9-0.2-1.5-0.7-2c-0.4-0.5-1-0.7-1.6-0.7  c-0.7,0-1.2,0.2-1.6,0.7s-0.6,1.1-0.6,2H244.1z"></path></g><g class="st0">	<path class="st4" d="M249.5,178.6v-15.7h3v15.7H249.5z"></path></g></svg>